<?xml version="1.0" encoding="UTF-8" standalone="no"?><svg xmlns="http://www.w3.org/2000/svg" xmlns:xlink="http://www.w3.org/1999/xlink" contentScriptType="application/ecmascript" contentStyleType="text/css" height="552px" preserveAspectRatio="none" style="width:497px;height:552px;" version="1.1" viewBox="0 0 497 552" width="497px" zoomAndPan="magnify"><defs><filter height="300%" id="f1qf821l3v3vyo" width="300%" x="-1" y="-1"><feGaussianBlur result="blurOut" stdDeviation="2.0"/><feColorMatrix in="blurOut" result="blurOut2" type="matrix" values="0 0 0 0 0 0 0 0 0 0 0 0 0 0 0 0 0 0 .4 0"/><feOffset dx="4.0" dy="4.0" in="blurOut2" result="blurOut3"/><feBlend in="SourceGraphic" in2="blurOut3" mode="normal"/></filter></defs><g><!--MD5=[dc284097f014e90bd93dea59b11d67af]
cluster petsi--><polygon fill="#CCFFCC" filter="url(#f1qf821l3v3vyo)" points="14,26,24,16,475,16,475,530,465,540,14,540,14,26" style="stroke: #000000; stroke-width: 1.5;"/><line style="stroke: #000000; stroke-width: 1.5;" x1="465" x2="474" y1="26" y2="17"/><line style="stroke: #000000; stroke-width: 1.5;" x1="14" x2="465" y1="26" y2="26"/><line style="stroke: #000000; stroke-width: 1.5;" x1="465" x2="465" y1="26" y2="540"/><text fill="#000000" font-family="sans-serif" font-size="14" font-weight="bold" lengthAdjust="spacingAndGlyphs" textLength="40" x="220.5" y="41.9951">petsi</text><!--MD5=[f37f0077b0e42f424c43ac6386b5c03a]
cluster plugins--><polygon fill="#FFE6CC" filter="url(#f1qf821l3v3vyo)" points="153,58,163,48,467,48,467,522,457,532,153,532,153,58" style="stroke: #000000; stroke-width: 1.5;"/><line style="stroke: #000000; stroke-width: 1.5;" x1="457" x2="466" y1="58" y2="49"/><line style="stroke: #000000; stroke-width: 1.5;" x1="153" x2="457" y1="58" y2="58"/><line style="stroke: #000000; stroke-width: 1.5;" x1="457" x2="457" y1="58" y2="532"/><text fill="#000000" font-family="sans-serif" font-size="14" font-weight="bold" lengthAdjust="spacingAndGlyphs" textLength="58" x="277" y="73.9951">plugins</text><!--MD5=[acf0a14fd3c86b250cf962e9017e1b12]
cluster autofire--><polygon fill="#E4C49B" filter="url(#f1qf821l3v3vyo)" points="315,90,325,80,459,80,459,166,449,176,315,176,315,90" style="stroke: #000000; stroke-width: 1.5;"/><line style="stroke: #000000; stroke-width: 1.5;" x1="449" x2="458" y1="90" y2="81"/><line style="stroke: #000000; stroke-width: 1.5;" x1="315" x2="449" y1="90" y2="90"/><line style="stroke: #000000; stroke-width: 1.5;" x1="449" x2="449" y1="90" y2="176"/><text fill="#000000" font-family="sans-serif" font-size="14" font-weight="bold" lengthAdjust="spacingAndGlyphs" textLength="64" x="351" y="105.9951">autofire</text><!--MD5=[10d06cc918b59d11e1d5bb0fc7c71424]
cluster sojourntime--><polygon fill="#E6E6FF" filter="url(#f1qf821l3v3vyo)" points="286,206,296,196,459,196,459,282,449,292,286,292,286,206" style="stroke: #000000; stroke-width: 1.5;"/><line style="stroke: #000000; stroke-width: 1.5;" x1="449" x2="458" y1="206" y2="197"/><line style="stroke: #000000; stroke-width: 1.5;" x1="286" x2="449" y1="206" y2="206"/><line style="stroke: #000000; stroke-width: 1.5;" x1="449" x2="449" y1="206" y2="292"/><text fill="#000000" font-family="sans-serif" font-size="14" font-weight="bold" lengthAdjust="spacingAndGlyphs" textLength="97" x="320" y="221.9951">sojourntime</text><!--MD5=[1e8a6550d1e017d3a8ec0702addd1e61]
cluster tokencounter--><polygon fill="#E6E6FF" filter="url(#f1qf821l3v3vyo)" points="275,322,285,312,459,312,459,398,449,408,275,408,275,322" style="stroke: #000000; stroke-width: 1.5;"/><line style="stroke: #000000; stroke-width: 1.5;" x1="449" x2="458" y1="322" y2="313"/><line style="stroke: #000000; stroke-width: 1.5;" x1="275" x2="449" y1="322" y2="322"/><line style="stroke: #000000; stroke-width: 1.5;" x1="449" x2="449" y1="322" y2="408"/><text fill="#000000" font-family="sans-serif" font-size="14" font-weight="bold" lengthAdjust="spacingAndGlyphs" textLength="108" x="309" y="337.9951">tokencounter</text><!--MD5=[16456cf462d733489eb1c4ab5b20f8b6]
cluster transitioninterval--><polygon fill="#E6E6FF" filter="url(#f1qf821l3v3vyo)" points="243,438,253,428,459,428,459,514,449,524,243,524,243,438" style="stroke: #000000; stroke-width: 1.5;"/><line style="stroke: #000000; stroke-width: 1.5;" x1="449" x2="458" y1="438" y2="429"/><line style="stroke: #000000; stroke-width: 1.5;" x1="243" x2="449" y1="438" y2="438"/><line style="stroke: #000000; stroke-width: 1.5;" x1="449" x2="449" y1="438" y2="524"/><text fill="#000000" font-family="sans-serif" font-size="14" font-weight="bold" lengthAdjust="spacingAndGlyphs" textLength="140" x="277" y="453.9951">transitioninterval</text><!--MD5=[7baa19466cd84486df05a50bdf10256b]
entity _structure--><polygon fill="#FFEBE6" filter="url(#f1qf821l3v3vyo)" points="23.5,112,69.5,112,76.5,133,124.5,133,124.5,167.5938,23.5,167.5938,23.5,112" style="stroke: #000000; stroke-width: 1.5;"/><line style="stroke: #000000; stroke-width: 1.5;" x1="23.5" x2="76.5" y1="133" y2="133"/><text fill="#000000" font-family="sans-serif" font-size="14" lengthAdjust="spacingAndGlyphs" textLength="71" x="33.5" y="152.9951">_structure</text><!--MD5=[5863438459b2eab1df2d54e08efabd86]
entity netviz--><polygon fill="#E6F3FF" filter="url(#f1qf821l3v3vyo)" points="38,228,84,228,91,249,110,249,110,283.5938,38,283.5938,38,228" style="stroke: #000000; stroke-width: 1.5;"/><line style="stroke: #000000; stroke-width: 1.5;" x1="38" x2="91" y1="249" y2="249"/><text fill="#000000" font-family="sans-serif" font-size="14" lengthAdjust="spacingAndGlyphs" textLength="42" x="48" y="268.9951">netviz</text><!--MD5=[ff665cba05b979a8ff840d18fdae6b82]
entity simulation--><polygon fill="#E6F3FF" filter="url(#f1qf821l3v3vyo)" points="22,344,68,344,75,365,126,365,126,399.5938,22,399.5938,22,344" style="stroke: #000000; stroke-width: 1.5;"/><line style="stroke: #000000; stroke-width: 1.5;" x1="22" x2="75" y1="365" y2="365"/><text fill="#000000" font-family="sans-serif" font-size="14" lengthAdjust="spacingAndGlyphs" textLength="74" x="32" y="384.9951">simulation</text><!--MD5=[fd35d086f3360a91061ab5b89379d40a]
entity util--><polygon fill="#E6F3FF" filter="url(#f1qf821l3v3vyo)" points="48,460,94,460,101,481,100,481,100,515.5938,48,515.5938,48,460" style="stroke: #000000; stroke-width: 1.5;"/><line style="stroke: #000000; stroke-width: 1.5;" x1="48" x2="101" y1="481" y2="481"/><text fill="#000000" font-family="sans-serif" font-size="14" lengthAdjust="spacingAndGlyphs" textLength="22" x="58" y="500.9951">util</text><!--MD5=[ea4128e1b5db6200a10193b8015cde63]
entity interface--><polygon fill="#E6F3FF" filter="url(#f1qf821l3v3vyo)" points="161,112,207,112,214,133,255,133,255,167.5938,161,167.5938,161,112" style="stroke: #000000; stroke-width: 1.5;"/><line style="stroke: #000000; stroke-width: 1.5;" x1="161" x2="214" y1="133" y2="133"/><text fill="#000000" font-family="sans-serif" font-size="14" lengthAdjust="spacingAndGlyphs" textLength="64" x="171" y="152.9951">interface</text><!--MD5=[86e2b5344763209cfc8f95df5f46b693]
entity meters--><polygon fill="#E6F3FF" filter="url(#f1qf821l3v3vyo)" points="166,228,212,228,219,249,246,249,246,283.5938,166,283.5938,166,228" style="stroke: #000000; stroke-width: 1.5;"/><line style="stroke: #000000; stroke-width: 1.5;" x1="166" x2="219" y1="249" y2="249"/><text fill="#000000" font-family="sans-serif" font-size="14" lengthAdjust="spacingAndGlyphs" textLength="50" x="176" y="268.9951">meters</text><!--MD5=[941ace56868481e5d4c1ca402b578eb9]
entity _meters--><polygon fill="#FFEBE6" filter="url(#f1qf821l3v3vyo)" points="161.5,344,207.5,344,214.5,365,248.5,365,248.5,399.5938,161.5,399.5938,161.5,344" style="stroke: #000000; stroke-width: 1.5;"/><line style="stroke: #000000; stroke-width: 1.5;" x1="161.5" x2="214.5" y1="365" y2="365"/><text fill="#000000" font-family="sans-serif" font-size="14" lengthAdjust="spacingAndGlyphs" textLength="57" x="171.5" y="384.9951">_meters</text><!--MD5=[e3f55694029272cc949fdd69573612c0]
entity _autofire--><polygon fill="#FFEBE6" filter="url(#f1qf821l3v3vyo)" points="322.5,112,368.5,112,375.5,133,415.5,133,415.5,167.5938,322.5,167.5938,322.5,112" style="stroke: #000000; stroke-width: 1.5;"/><line style="stroke: #000000; stroke-width: 1.5;" x1="322.5" x2="375.5" y1="133" y2="133"/><text fill="#000000" font-family="sans-serif" font-size="14" lengthAdjust="spacingAndGlyphs" textLength="63" x="332.5" y="152.9951">_autofire</text><!--MD5=[487b71ba2a2e33081000385fbcb41409]
entity _sojourntime--><polygon fill="#FFEBE6" filter="url(#f1qf821l3v3vyo)" points="294,228,340,228,347,249,416,249,416,283.5938,294,283.5938,294,228" style="stroke: #000000; stroke-width: 1.5;"/><line style="stroke: #000000; stroke-width: 1.5;" x1="294" x2="347" y1="249" y2="249"/><text fill="#000000" font-family="sans-serif" font-size="14" lengthAdjust="spacingAndGlyphs" textLength="92" x="304" y="268.9951">_sojourntime</text><!--MD5=[1ec1fe781dcbee615db4e830ed997795]
entity _tokencounter--><polygon fill="#FFEBE6" filter="url(#f1qf821l3v3vyo)" points="284,344,330,344,337,365,416,365,416,399.5938,284,399.5938,284,344" style="stroke: #000000; stroke-width: 1.5;"/><line style="stroke: #000000; stroke-width: 1.5;" x1="284" x2="337" y1="365" y2="365"/><text fill="#000000" font-family="sans-serif" font-size="14" lengthAdjust="spacingAndGlyphs" textLength="102" x="294" y="384.9951">_tokencounter</text><!--MD5=[a083de49e60d125a030aa81cdaa54be4]
entity _transitioninterval--><polygon fill="#FFEBE6" filter="url(#f1qf821l3v3vyo)" points="255,460,301,460,308,481,413,481,413,515.5938,255,515.5938,255,460" style="stroke: #000000; stroke-width: 1.5;"/><line style="stroke: #000000; stroke-width: 1.5;" x1="255" x2="308" y1="481" y2="481"/><text fill="#000000" font-family="sans-serif" font-size="14" lengthAdjust="spacingAndGlyphs" textLength="128" x="265" y="500.9951">_transitioninterval</text><!--MD5=[d399e27dd5c2c1b1863e3a2ef883e2fa]
link _structure to netviz--><!--MD5=[8a3a24ca0da43847e6ec0ac955eac343]
link netviz to simulation--><!--MD5=[f923282872e4ff4ff36a8d8f60dc90b1]
link simulation to util--><!--MD5=[c1a01f0a21be45d8a8e19905669c9e81]
link interface to meters--><!--MD5=[62ec9d3bca96551ef5265c19d08a3461]
link meters to _meters--><!--MD5=[352a0b4ed1e742cd2b5ddee6c689ef35]
link autofire to sojourntime--><!--MD5=[dedd7422cf42d955a223baf907b82bb5]
link sojourntime to tokencounter--><!--MD5=[6f4b62ee786b19685724646aae73058c]
link tokencounter to transitioninterval--><!--MD5=[2d75e4c3855280911a91b0b70627a6f3]
@startuml

package "petsi" <<Node>> #ccffcc {
    package "_structure" <<Folder>> #ffebe6 {
    }
    package "netviz" <<Folder>> #e6f3ff {
    }
    package "simulation" <<Folder>> #e6f3ff {
    }
    package "util" <<Folder>> #e6f3ff {
    }
    _structure -[hidden]- netviz
    netviz -[hidden]- simulation
    simulation -[hidden]- util

    package "plugins" <<Node>> #ffe6cc {
        package "interface" <<Folder>> #e6f3ff {
        }
        package "meters" <<Folder>> #e6f3ff {
        }
        package "_meters" <<Folder>> #ffebe6 {
        }
        interface -[hidden]- meters
        meters -[hidden]- _meters

        package "autofire" <<Node>> #e4c49b {
            package "_autofire" <<Folder>> #ffebe6 {
            }
        }
        package "sojourntime" <<Node>> #e6e6ff {
            package "_sojourntime" <<Folder>> #ffebe6 {
            }
        }
        package "tokencounter" <<Node>> #e6e6ff {
            package "_tokencounter" <<Folder>> #ffebe6 {
            }
        }
        package "transitioninterval" <<Node>> #e6e6ff {
            package "_transitioninterval" <<Folder>> #ffebe6 {
            }
        }
        autofire -[hidden]- sojourntime
        sojourntime -[hidden]- tokencounter
        tokencounter -[hidden]- transitioninterval
    }
}

@enduml

PlantUML version 1.2020.09(Sun May 10 12:51:06 CEST 2020)
(GPL source distribution)
Java Runtime: OpenJDK Runtime Environment
JVM: OpenJDK 64-Bit Server VM
Java Version: 11.0.7+10-b765.53
Operating System: Linux
Default Encoding: UTF-8
Language: hu
Country: HU
--></g></svg>