<?xml version="1.0" encoding="UTF-8" standalone="no"?><svg xmlns="http://www.w3.org/2000/svg" xmlns:xlink="http://www.w3.org/1999/xlink" contentScriptType="application/ecmascript" contentStyleType="text/css" height="431.2px" preserveAspectRatio="none" style="width:650px;height:431px;" version="1.1" viewBox="0 0 650 431" width="650.4px" zoomAndPan="magnify"><defs><filter height="300%" id="f6i6a4hyvjpxc" width="300%" x="-1" y="-1"><feGaussianBlur result="blurOut" stdDeviation="1.6"/><feColorMatrix in="blurOut" result="blurOut2" type="matrix" values="0 0 0 0 0 0 0 0 0 0 0 0 0 0 0 0 0 0 .4 0"/><feOffset dx="3.2" dy="3.2" in="blurOut2" result="blurOut3"/><feBlend in="SourceGraphic" in2="blurOut3" mode="normal"/></filter></defs><g><rect fill="#C6C6C6" filter="url(#f6i6a4hyvjpxc)" height="40.2125" rx="10" ry="10" style="stroke: #A80036; stroke-width: 1.2000000000000002;" width="123.2" x="92.977" y="164.8"/><line style="stroke: #A80036; stroke-width: 1.2000000000000002;" x1="92.977" x2="216.177" y1="185.8375" y2="185.8375"/><text fill="#000000" font-family="sans-serif" font-size="11.2" lengthAdjust="spacingAndGlyphs" textLength="107.2" x="100.977" y="179.1961">UNDEFINED_TIMED</text><text fill="#000000" font-family="sans-serif" font-size="9.6" lengthAdjust="spacingAndGlyphs" textLength="102.4" x="96.977" y="198.7484">(Choice pseudostate)</text><rect fill="#FFB3B3" filter="url(#f6i6a4hyvjpxc)" height="32" rx="10" ry="10" style="stroke: #A80036; stroke-width: 1.2000000000000002;" width="48" x="130.577" y="390.4"/><text fill="#000000" font-family="sans-serif" font-size="11.2" lengthAdjust="spacingAndGlyphs" textLength="40" x="134.577" y="410.2773">ERROR</text><rect fill="#B3B3FF" filter="url(#f6i6a4hyvjpxc)" height="32" rx="10" ry="10" style="stroke: #A80036; stroke-width: 1.2000000000000002;" width="73.6" x="193.777" y="71.2"/><text fill="#000000" font-family="sans-serif" font-size="11.2" lengthAdjust="spacingAndGlyphs" textLength="65.6" x="197.777" y="91.0773">UNDEFINED</text><rect fill="#B3FFB3" filter="url(#f6i6a4hyvjpxc)" height="32" rx="10" ry="10" style="stroke: #A80036; stroke-width: 1.2000000000000002;" width="52" x="128.577" y="284.8"/><text fill="#000000" font-family="sans-serif" font-size="11.2" lengthAdjust="spacingAndGlyphs" textLength="44" x="132.577" y="304.6773">STABLE</text><rect fill="#B3FFB3" filter="url(#f6i6a4hyvjpxc)" height="32" rx="10" ry="10" style="stroke: #A80036; stroke-width: 1.2000000000000002;" width="72" x="369.777" y="228.8"/><text fill="#000000" font-family="sans-serif" font-size="11.2" lengthAdjust="spacingAndGlyphs" textLength="64" x="373.777" y="248.6773">TRANSIENT</text><ellipse cx="230.577" cy="14.4" fill="#000000" filter="url(#f6i6a4hyvjpxc)" rx="8" ry="8" style="stroke: none; stroke-width: 0.8;"/><!--MD5=[ca383dd3c0ec947a38c04ce9675076f8]
link *start to UNDEFINED--><path d="M230.577,22.469 C230.577,33.1621 230.577,52.3917 230.577,67.1229 " fill="none" id="*start-&gt;UNDEFINED" style="stroke: #A80036; stroke-width: 0.8;"/><polygon fill="#A80036" points="230.577,71.1477,233.777,63.9477,230.577,67.1477,227.377,63.9477,230.577,71.1477" style="stroke: #A80036; stroke-width: 0.8;"/><!--MD5=[994826e028d50737cacd0b1d2bcf3681]
link UNDEFINED to UNDEFINED_TIMED--><path d="M218.0271,103.3166 C205.7232,119.1175 186.8312,143.3788 172.8588,161.3222 " fill="none" id="UNDEFINED-&gt;UNDEFINED_TIMED" style="stroke: #A80036; stroke-width: 0.8;"/><polygon fill="#A80036" points="170.3098,164.5958,177.2583,160.8811,172.7674,161.4398,172.2087,156.9489,170.3098,164.5958" style="stroke: #A80036; stroke-width: 0.8;"/><text fill="#000000" font-family="sans-serif" font-size="10.4" lengthAdjust="spacingAndGlyphs" textLength="114.4" x="200.977" y="137.6651">[to a timed transition]</text><!--MD5=[debe3875161e72a95fb55857169dd75a]
link UNDEFINED_TIMED to STABLE--><path d="M154.577,205.0057 C154.577,226.1831 154.577,259.2674 154.577,280.4854 " fill="none" id="UNDEFINED_TIMED-&gt;STABLE" style="stroke: #A80036; stroke-width: 0.8;"/><polygon fill="#A80036" points="154.577,284.5638,157.777,277.3638,154.577,280.5638,151.377,277.3638,154.577,284.5638" style="stroke: #A80036; stroke-width: 0.8;"/><text fill="#000000" font-family="sans-serif" font-size="10.4" lengthAdjust="spacingAndGlyphs" textLength="111.2" x="155.377" y="248.4651">[token consumer arc]</text><!--MD5=[6ac686db42732de64137d7f1069fb7c1]
link UNDEFINED_TIMED to ERROR--><path d="M101.9763,204.8963 C50.8342,227.7627 -15.492,268.293 11.377,316.8 C35.8693,361.0163 92.2934,386.3086 126.5495,398.1159 " fill="none" id="UNDEFINED_TIMED-&gt;ERROR" style="stroke: #A80036; stroke-width: 0.8;"/><polygon fill="#A80036" points="130.4083,399.4213,124.6135,394.0828,126.6193,398.1395,122.5626,400.1453,130.4083,399.4213" style="stroke: #A80036; stroke-width: 0.8;"/><text fill="#000000" font-family="sans-serif" font-size="10.4" lengthAdjust="spacingAndGlyphs" textLength="101.6" x="12.177" y="304.4651">[non-consumer arc]</text><!--MD5=[19bf71dd5eac0748f058b32d412fcc7d]
link UNDEFINED to UNDEFINED--><path d="M267.5418,79.7554 C282.641,79.2888 295.377,81.7703 295.377,87.2 C295.377,92.1206 284.917,94.62 271.7176,94.6981 " fill="none" id="UNDEFINED-&gt;UNDEFINED" style="stroke: #A80036; stroke-width: 0.8;"/><polygon fill="#A80036" points="267.5418,94.6446,274.7002,97.9367,271.5415,94.696,274.7823,91.5373,267.5418,94.6446" style="stroke: #A80036; stroke-width: 0.8;"/><text fill="#000000" font-family="sans-serif" font-size="10.4" lengthAdjust="spacingAndGlyphs" textLength="244" x="300.177" y="90.8651">[non-consumer arc to an immediate transition]</text><!--MD5=[43925ccc000edbf73c38cd1fab8852f8]
link UNDEFINED to TRANSIENT--><path d="M267.3782,97.9914 C285.3084,104.4833 306.4275,114.071 322.577,127.2 C356.4251,154.7174 382.7723,199.3297 396.127,224.9681 " fill="none" id="UNDEFINED-&gt;TRANSIENT" style="stroke: #A80036; stroke-width: 0.8;"/><polygon fill="#A80036" points="398.0024,228.6088,397.5499,220.7427,396.1706,225.0529,391.8604,223.6736,398.0024,228.6088" style="stroke: #A80036; stroke-width: 0.8;"/><text fill="#000000" font-family="sans-serif" font-size="10.4" lengthAdjust="spacingAndGlyphs" textLength="253.6" x="337.777" y="137.6651">[token consumer arc to an immediate transition]</text><!--MD5=[a7fbe1a0fb9fff201837a1bca6541729]
link STABLE to ERROR--><path d="M154.577,316.8384 C154.577,335.3684 154.577,365.8905 154.577,386.0697 " fill="none" id="STABLE-&gt;ERROR" style="stroke: #A80036; stroke-width: 0.8;"/><polygon fill="#A80036" points="154.577,390.2107,157.777,383.0107,154.577,386.2107,151.377,383.0107,154.577,390.2107" style="stroke: #A80036; stroke-width: 0.8;"/><text fill="#000000" font-family="sans-serif" font-size="10.4" lengthAdjust="spacingAndGlyphs" textLength="170.4" x="194.977" y="351.2651">[any arc to a timed transition OR</text><text fill="#000000" font-family="sans-serif" font-size="10.4" lengthAdjust="spacingAndGlyphs" textLength="249.6" x="158.577" y="363.3859">token consumer arc to an immediate transition]</text><!--MD5=[9497fba0f876649970ea401b8827a8fd]
link STABLE to STABLE--><path d="M180.6918,291.3738 C195.2088,289.6142 208.577,292.7562 208.577,300.8 C208.577,308.0897 197.5978,311.3536 184.7344,310.5919 " fill="none" id="STABLE-&gt;STABLE" style="stroke: #A80036; stroke-width: 0.8;"/><polygon fill="#A80036" points="180.6918,310.2262,187.5743,314.0618,184.6756,310.5866,188.1508,307.6879,180.6918,310.2262" style="stroke: #A80036; stroke-width: 0.8;"/><text fill="#000000" font-family="sans-serif" font-size="10.4" lengthAdjust="spacingAndGlyphs" textLength="244" x="213.377" y="304.4651">[non-consumer arc to an immediate transition]</text><!--MD5=[f503721438ddd28340c1bca2a831ae45]
link TRANSIENT to ERROR--><path d="M439.5505,260.8886 C448.6936,267.0146 457.4666,274.9508 462.577,284.8 C481.8727,321.9889 452.5162,347.0088 415.377,366.4 C375.2274,387.363 241.4826,399.8079 182.7007,404.3858 " fill="none" id="TRANSIENT-&gt;ERROR" style="stroke: #A80036; stroke-width: 0.8;"/><polygon fill="#A80036" points="178.6003,404.7018,186.025,407.339,182.5885,404.3944,185.5331,400.9579,178.6003,404.7018" style="stroke: #A80036; stroke-width: 0.8;"/><text fill="#000000" font-family="sans-serif" font-size="10.4" lengthAdjust="spacingAndGlyphs" textLength="133.6" x="468.977" y="304.4651">[arc to a timed transition]</text><!--MD5=[d8425a81ce123210923c2d72628e0287]
link TRANSIENT to TRANSIENT--><path d="M441.9633,234.3923 C457.0166,233.6745 469.777,237.1438 469.777,244.8 C469.777,251.7385 459.297,255.2382 446.1279,255.2992 " fill="none" id="TRANSIENT-&gt;TRANSIENT" style="stroke: #A80036; stroke-width: 0.8;"/><polygon fill="#A80036" points="441.9633,255.2077,449.0912,258.5651,445.9623,255.2956,449.2319,252.1666,441.9633,255.2077" style="stroke: #A80036; stroke-width: 0.8;"/><text fill="#000000" font-family="sans-serif" font-size="10.4" lengthAdjust="spacingAndGlyphs" textLength="166.4" x="474.577" y="248.4651">[arc to an immediate transition]</text><!--MD5=[5b86401139122af8b1bdb9537c53e4cf]
@startuml
scale 700 width
hide empty description

state UNDEFINED_TIMED #c6c6c6: (Choice pseudostate)

state ERROR #ffb3b3
state UNDEFINED #b3b3ff
state STABLE #b3ffb3
state TRANSIENT #b3ffb3

[*] - -> UNDEFINED
UNDEFINED - -> UNDEFINED_TIMED: [to a timed transition]
UNDEFINED_TIMED - -> STABLE : [token consumer arc]
UNDEFINED_TIMED - -> ERROR: [non-consumer arc]
UNDEFINED - -> UNDEFINED: [non-consumer arc to an immediate transition]
UNDEFINED - -> TRANSIENT: [token consumer arc to an immediate transition]

STABLE - -> ERROR: [any arc to a timed transition OR \n token consumer arc to an immediate transition]
STABLE - -> STABLE: [non-consumer arc to an immediate transition]

TRANSIENT - -> ERROR : [arc to a timed transition]
TRANSIENT - -> TRANSIENT: [arc to an immediate transition]

@enduml

PlantUML version 1.2020.09(Sun May 10 12:51:06 CEST 2020)
(GPL source distribution)
Java Runtime: OpenJDK Runtime Environment
JVM: OpenJDK 64-Bit Server VM
Java Version: 11.0.7+10-b765.64
Operating System: Linux
Default Encoding: UTF-8
Language: hu
Country: HU
--></g></svg>